<mxfile host="Electron" modified="2023-11-13T08:54:38.014Z" agent="Mozilla/5.0 (X11; Linux x86_64) AppleWebKit/537.36 (KHTML, like Gecko) draw.io/22.0.3 Chrome/114.0.5735.289 Electron/25.8.4 Safari/537.36" etag="z5mEo6tjqYYvAszHXvSw" version="22.0.3" type="device">
  <diagram name="Page-1" id="O3dktfpAn14j_S24qCJh">
    <mxGraphModel dx="806" dy="531" grid="1" gridSize="10" guides="1" tooltips="1" connect="1" arrows="1" fold="1" page="1" pageScale="1" pageWidth="850" pageHeight="1100" background="none" math="0" shadow="0">
      <root>
        <mxCell id="0" />
        <mxCell id="1" parent="0" />
        <mxCell id="pIfKvR1tOPdPZYb1CW6L-2" value="" style="rounded=0;whiteSpace=wrap;html=1;gradientColor=default;fillColor=#FFFFFF;strokeWidth=2;fontColor=#000000;strokeColor=#000000;" parent="1" vertex="1">
          <mxGeometry x="74" y="77" width="650" height="680" as="geometry" />
        </mxCell>
        <mxCell id="pIfKvR1tOPdPZYb1CW6L-3" value="&lt;b style=&quot;font-size: 14px;&quot;&gt;FIRMWARE&lt;br&gt;UPDATE SERVICE&lt;/b&gt;" style="whiteSpace=wrap;html=1;aspect=fixed;strokeWidth=2;fontColor=#ffffff;strokeColor=#001DBC;fillColor=#0050ef;" parent="1" vertex="1">
          <mxGeometry x="130" y="340" width="80" height="80" as="geometry" />
        </mxCell>
        <mxCell id="pIfKvR1tOPdPZYb1CW6L-4" value="&lt;b style=&quot;font-size: 14px;&quot;&gt;MQTT&lt;br&gt;SERVICE&lt;/b&gt;" style="whiteSpace=wrap;html=1;aspect=fixed;strokeWidth=2;fontColor=#ffffff;strokeColor=#A50040;fillColor=#d80073;" parent="1" vertex="1">
          <mxGeometry x="340" y="140" width="80" height="80" as="geometry" />
        </mxCell>
        <mxCell id="pIfKvR1tOPdPZYb1CW6L-5" value="&lt;b style=&quot;font-size: 14px;&quot;&gt;GUI&lt;br&gt;SERVICE&lt;br&gt;&lt;/b&gt;" style="whiteSpace=wrap;html=1;aspect=fixed;strokeWidth=2;fillColor=#60a917;fontColor=#ffffff;strokeColor=#2D7600;" parent="1" vertex="1">
          <mxGeometry x="590" y="340" width="80" height="80" as="geometry" />
        </mxCell>
        <mxCell id="pIfKvR1tOPdPZYb1CW6L-7" value="&lt;b&gt;DBUS&lt;/b&gt;" style="text;strokeColor=#6F0000;align=center;fillColor=#a20025;html=1;verticalAlign=middle;whiteSpace=wrap;rounded=0;strokeWidth=2;fontColor=#ffffff;" parent="1" vertex="1">
          <mxGeometry x="355" y="241" width="60" height="29" as="geometry" />
        </mxCell>
        <mxCell id="pIfKvR1tOPdPZYb1CW6L-9" value="" style="endArrow=classic;html=1;rounded=0;exitX=1.063;exitY=0.625;exitDx=0;exitDy=0;exitPerimeter=0;fillColor=#0050ef;strokeColor=#000000;strokeWidth=2;fontColor=#000000;" parent="1" source="pIfKvR1tOPdPZYb1CW6L-4" edge="1">
          <mxGeometry width="50" height="50" relative="1" as="geometry">
            <mxPoint x="480" y="220" as="sourcePoint" />
            <mxPoint x="490" y="260" as="targetPoint" />
          </mxGeometry>
        </mxCell>
        <mxCell id="pIfKvR1tOPdPZYb1CW6L-15" value="" style="endArrow=classic;html=1;rounded=0;entryX=0.25;entryY=0;entryDx=0;entryDy=0;fillColor=#0050ef;strokeColor=#000000;strokeWidth=2;fontColor=#000000;" parent="1" target="pIfKvR1tOPdPZYb1CW6L-5" edge="1">
          <mxGeometry width="50" height="50" relative="1" as="geometry">
            <mxPoint x="580" y="290" as="sourcePoint" />
            <mxPoint x="580" y="300" as="targetPoint" />
          </mxGeometry>
        </mxCell>
        <mxCell id="pIfKvR1tOPdPZYb1CW6L-17" value="&lt;b&gt;SHARED .BIN FILES&lt;/b&gt;" style="ellipse;whiteSpace=wrap;html=1;aspect=fixed;strokeWidth=2;fontColor=#ffffff;strokeColor=#3A5431;fillColor=#6d8764;" parent="1" vertex="1">
          <mxGeometry x="100" y="150" width="80" height="80" as="geometry" />
        </mxCell>
        <mxCell id="pIfKvR1tOPdPZYb1CW6L-18" value="" style="endArrow=classic;html=1;rounded=0;exitX=0.025;exitY=0.625;exitDx=0;exitDy=0;exitPerimeter=0;entryX=1;entryY=0.5;entryDx=0;entryDy=0;fillColor=#d80073;strokeColor=#000000;strokeWidth=2;fontColor=#000000;" parent="1" source="pIfKvR1tOPdPZYb1CW6L-4" target="pIfKvR1tOPdPZYb1CW6L-17" edge="1">
          <mxGeometry width="50" height="50" relative="1" as="geometry">
            <mxPoint x="240" y="200" as="sourcePoint" />
            <mxPoint x="290" y="150" as="targetPoint" />
          </mxGeometry>
        </mxCell>
        <mxCell id="pIfKvR1tOPdPZYb1CW6L-20" value="" style="endArrow=classic;html=1;rounded=0;fillColor=#60a917;strokeColor=#000000;strokeWidth=2;fontColor=#000000;" parent="1" edge="1">
          <mxGeometry width="50" height="50" relative="1" as="geometry">
            <mxPoint x="589" y="391.08620689655174" as="sourcePoint" />
            <mxPoint x="430" y="290" as="targetPoint" />
          </mxGeometry>
        </mxCell>
        <mxCell id="pIfKvR1tOPdPZYb1CW6L-22" value="" style="endArrow=classic;html=1;rounded=0;entryX=1.05;entryY=0.6;entryDx=0;entryDy=0;entryPerimeter=0;fillColor=#60a917;strokeColor=#000000;strokeWidth=2;fontColor=#000000;" parent="1" target="pIfKvR1tOPdPZYb1CW6L-3" edge="1">
          <mxGeometry width="50" height="50" relative="1" as="geometry">
            <mxPoint x="330" y="290" as="sourcePoint" />
            <mxPoint x="260" y="320" as="targetPoint" />
          </mxGeometry>
        </mxCell>
        <mxCell id="pIfKvR1tOPdPZYb1CW6L-25" value="" style="shape=link;html=1;rounded=0;strokeWidth=2;fontColor=#000000;strokeColor=#BD7000;fillColor=#f0a30a;" parent="1" edge="1">
          <mxGeometry width="100" relative="1" as="geometry">
            <mxPoint x="100" y="550" as="sourcePoint" />
            <mxPoint x="680" y="550" as="targetPoint" />
          </mxGeometry>
        </mxCell>
        <mxCell id="pIfKvR1tOPdPZYb1CW6L-26" value="&lt;b&gt;I2C 1 BUS&lt;/b&gt;" style="text;strokeColor=#d79b00;align=center;fillColor=#ffcd28;html=1;verticalAlign=middle;whiteSpace=wrap;rounded=0;strokeWidth=2;gradientColor=#ffa500;" parent="1" vertex="1">
          <mxGeometry x="340" y="510" width="75" height="30" as="geometry" />
        </mxCell>
        <mxCell id="pIfKvR1tOPdPZYb1CW6L-27" value="&lt;b&gt;BOOTLOADER&lt;br&gt;1&lt;/b&gt;" style="whiteSpace=wrap;html=1;aspect=fixed;strokeWidth=2;fontColor=#ffffff;strokeColor=#432D57;fillColor=#76608a;" parent="1" vertex="1">
          <mxGeometry x="130" y="620" width="100" height="100" as="geometry" />
        </mxCell>
        <mxCell id="pIfKvR1tOPdPZYb1CW6L-28" value="&lt;b&gt;BOOTLOADER&lt;br&gt;2&lt;br&gt;&lt;/b&gt;" style="whiteSpace=wrap;html=1;aspect=fixed;strokeWidth=2;fontColor=#ffffff;strokeColor=#432D57;fillColor=#76608a;" parent="1" vertex="1">
          <mxGeometry x="340" y="620" width="100" height="100" as="geometry" />
        </mxCell>
        <mxCell id="pIfKvR1tOPdPZYb1CW6L-29" value="&lt;b&gt;BOOTLOADER&lt;br&gt;3&lt;/b&gt;" style="whiteSpace=wrap;html=1;aspect=fixed;strokeWidth=2;fontColor=#ffffff;strokeColor=#432D57;fillColor=#76608a;" parent="1" vertex="1">
          <mxGeometry x="530" y="620" width="100" height="100" as="geometry" />
        </mxCell>
        <mxCell id="pIfKvR1tOPdPZYb1CW6L-30" value="" style="endArrow=classic;startArrow=classic;html=1;rounded=0;entryX=0.125;entryY=1;entryDx=0;entryDy=0;entryPerimeter=0;fillColor=#6a00ff;strokeColor=#000000;strokeWidth=2;fontColor=#000000;" parent="1" edge="1">
          <mxGeometry width="50" height="50" relative="1" as="geometry">
            <mxPoint x="146" y="533" as="sourcePoint" />
            <mxPoint x="146" y="433" as="targetPoint" />
          </mxGeometry>
        </mxCell>
        <mxCell id="pIfKvR1tOPdPZYb1CW6L-32" value="" style="endArrow=classic;startArrow=classic;html=1;rounded=0;entryX=0.125;entryY=1;entryDx=0;entryDy=0;entryPerimeter=0;strokeWidth=2;fontColor=#000000;strokeColor=#000000;" parent="1" edge="1">
          <mxGeometry width="50" height="50" relative="1" as="geometry">
            <mxPoint x="178.5" y="617" as="sourcePoint" />
            <mxPoint x="178.5" y="560" as="targetPoint" />
          </mxGeometry>
        </mxCell>
        <mxCell id="pIfKvR1tOPdPZYb1CW6L-33" value="" style="endArrow=classic;startArrow=classic;html=1;rounded=0;entryX=0.125;entryY=1;entryDx=0;entryDy=0;entryPerimeter=0;strokeWidth=2;fontColor=#000000;strokeColor=#000000;" parent="1" edge="1">
          <mxGeometry width="50" height="50" relative="1" as="geometry">
            <mxPoint x="387.5" y="617" as="sourcePoint" />
            <mxPoint x="387.5" y="560" as="targetPoint" />
          </mxGeometry>
        </mxCell>
        <mxCell id="pIfKvR1tOPdPZYb1CW6L-36" value="" style="endArrow=classic;startArrow=classic;html=1;rounded=0;entryX=0.125;entryY=1;entryDx=0;entryDy=0;entryPerimeter=0;strokeWidth=2;fontColor=#000000;strokeColor=#000000;" parent="1" edge="1">
          <mxGeometry width="50" height="50" relative="1" as="geometry">
            <mxPoint x="579.5" y="617" as="sourcePoint" />
            <mxPoint x="579.5" y="560" as="targetPoint" />
          </mxGeometry>
        </mxCell>
        <mxCell id="pIfKvR1tOPdPZYb1CW6L-37" value="" style="endArrow=classic;html=1;rounded=0;exitX=0.375;exitY=1;exitDx=0;exitDy=0;exitPerimeter=0;fillColor=#6a00ff;strokeColor=#000000;strokeWidth=2;fontColor=#000000;" parent="1" source="pIfKvR1tOPdPZYb1CW6L-17" edge="1">
          <mxGeometry width="50" height="50" relative="1" as="geometry">
            <mxPoint x="90" y="300" as="sourcePoint" />
            <mxPoint x="160" y="330" as="targetPoint" />
          </mxGeometry>
        </mxCell>
        <mxCell id="pIfKvR1tOPdPZYb1CW6L-39" value="&lt;b&gt;5&lt;br&gt;write &lt;br&gt;.bin&lt;br&gt;&lt;/b&gt;" style="text;strokeColor=#000000;align=center;fillColor=default;html=1;verticalAlign=middle;whiteSpace=wrap;rounded=0;strokeWidth=2;fontColor=#FFFFFF;" parent="1" vertex="1">
          <mxGeometry x="90" y="470" width="44" height="50" as="geometry" />
        </mxCell>
        <mxCell id="pIfKvR1tOPdPZYb1CW6L-40" value="" style="endArrow=classic;html=1;rounded=0;exitX=1;exitY=0.75;exitDx=0;exitDy=0;fillColor=#e3c800;strokeColor=#000000;strokeWidth=2;fontColor=#000000;" parent="1" source="pIfKvR1tOPdPZYb1CW6L-3" edge="1">
          <mxGeometry width="50" height="50" relative="1" as="geometry">
            <mxPoint x="240" y="470" as="sourcePoint" />
            <mxPoint x="380" y="290" as="targetPoint" />
            <Array as="points">
              <mxPoint x="380" y="400" />
            </Array>
          </mxGeometry>
        </mxCell>
        <mxCell id="pIfKvR1tOPdPZYb1CW6L-43" value="" style="endArrow=classic;html=1;rounded=0;entryX=0;entryY=0.75;entryDx=0;entryDy=0;fillColor=#e3c800;strokeColor=#000000;strokeWidth=2;fontColor=#000000;" parent="1" edge="1">
          <mxGeometry width="50" height="50" relative="1" as="geometry">
            <mxPoint x="410" y="290" as="sourcePoint" />
            <mxPoint x="589" y="400" as="targetPoint" />
            <Array as="points">
              <mxPoint x="409" y="400" />
            </Array>
          </mxGeometry>
        </mxCell>
        <mxCell id="pIfKvR1tOPdPZYb1CW6L-48" value="" style="shape=link;html=1;rounded=0;strokeColor=#B20000;fillColor=#e51400;strokeWidth=2;" parent="1" edge="1">
          <mxGeometry width="100" relative="1" as="geometry">
            <mxPoint x="170" y="280" as="sourcePoint" />
            <mxPoint x="620" y="280" as="targetPoint" />
          </mxGeometry>
        </mxCell>
        <mxCell id="pIfKvR1tOPdPZYb1CW6L-49" value="&lt;b style=&quot;color: rgb(255, 255, 255);&quot;&gt;2&lt;br&gt;NEW FIRMWARE&lt;br&gt;AVAILABLE&lt;br&gt;SIGNAL&lt;/b&gt;" style="ellipse;whiteSpace=wrap;html=1;aspect=fixed;" parent="1" vertex="1">
          <mxGeometry x="630" y="235" width="80" height="80" as="geometry" />
        </mxCell>
        <mxCell id="pIfKvR1tOPdPZYb1CW6L-50" value="&lt;b style=&quot;color: rgb(255, 255, 255);&quot;&gt;2&lt;br&gt;NEW FIRMWARE&lt;br&gt;AVAILABLE&lt;br&gt;SIGNAL&lt;/b&gt;" style="ellipse;whiteSpace=wrap;html=1;aspect=fixed;" parent="1" vertex="1">
          <mxGeometry x="450" y="150" width="80" height="80" as="geometry" />
        </mxCell>
        <mxCell id="pIfKvR1tOPdPZYb1CW6L-51" value="&lt;b style=&quot;&quot;&gt;&lt;font color=&quot;#ffffff&quot;&gt;3&lt;br&gt;INSTALL&lt;br&gt;SIGNAL&lt;/font&gt;&lt;/b&gt;" style="ellipse;whiteSpace=wrap;html=1;aspect=fixed;" parent="1" vertex="1">
          <mxGeometry x="420" y="322" width="62" height="62" as="geometry" />
        </mxCell>
        <mxCell id="pIfKvR1tOPdPZYb1CW6L-52" value="&lt;b style=&quot;&quot;&gt;&lt;font color=&quot;#ffffff&quot;&gt;3&lt;br&gt;INSTALL&lt;br&gt;SIGNAL&lt;/font&gt;&lt;/b&gt;" style="ellipse;whiteSpace=wrap;html=1;aspect=fixed;" parent="1" vertex="1">
          <mxGeometry x="300" y="322" width="62" height="62" as="geometry" />
        </mxCell>
        <mxCell id="pIfKvR1tOPdPZYb1CW6L-53" value="&lt;b&gt;4&lt;br&gt;&lt;/b&gt;&lt;b&gt;FETCH&lt;br&gt;.BIN&lt;br&gt;DATA&lt;/b&gt;" style="shape=note;whiteSpace=wrap;html=1;backgroundOutline=1;darkOpacity=0.05;" parent="1" vertex="1">
          <mxGeometry x="80" y="245" width="50" height="70" as="geometry" />
        </mxCell>
        <mxCell id="pIfKvR1tOPdPZYb1CW6L-54" value="&lt;b style=&quot;border-color: rgb(0, 0, 0); font-family: Helvetica; font-size: 12px; font-style: normal; font-variant-ligatures: normal; font-variant-caps: normal; letter-spacing: normal; orphans: 2; text-align: center; text-indent: 0px; text-transform: none; widows: 2; word-spacing: 0px; -webkit-text-stroke-width: 0px; background-color: rgb(27, 29, 30); text-decoration-thickness: initial; text-decoration-style: initial; text-decoration-color: initial;&quot;&gt;6&lt;br style=&quot;border-color: rgb(0, 0, 0);&quot;&gt;receive progress&lt;br style=&quot;border-color: rgb(0, 0, 0);&quot;&gt;val&lt;/b&gt;" style="ellipse;whiteSpace=wrap;html=1;aspect=fixed;fontColor=#FFFFFF;" parent="1" vertex="1">
          <mxGeometry x="482" y="400" width="60" height="60" as="geometry" />
        </mxCell>
        <mxCell id="pIfKvR1tOPdPZYb1CW6L-55" value="&lt;b style=&quot;border-color: rgb(0, 0, 0); font-family: Helvetica; font-size: 12px; font-style: normal; font-variant-ligatures: normal; font-variant-caps: normal; letter-spacing: normal; orphans: 2; text-align: center; text-indent: 0px; text-transform: none; widows: 2; word-spacing: 0px; -webkit-text-stroke-width: 0px; background-color: rgb(27, 29, 30); text-decoration-thickness: initial; text-decoration-style: initial; text-decoration-color: initial;&quot;&gt;6&lt;br style=&quot;border-color: rgb(0, 0, 0);&quot;&gt;Send progress&lt;br style=&quot;border-color: rgb(0, 0, 0);&quot;&gt;val&lt;/b&gt;" style="ellipse;whiteSpace=wrap;html=1;aspect=fixed;fontColor=#FFFFFF;" parent="1" vertex="1">
          <mxGeometry x="260" y="400" width="60" height="60" as="geometry" />
        </mxCell>
        <mxCell id="pIfKvR1tOPdPZYb1CW6L-56" style="edgeStyle=orthogonalEdgeStyle;rounded=0;orthogonalLoop=1;jettySize=auto;html=1;exitX=0.5;exitY=1;exitDx=0;exitDy=0;" parent="1" source="pIfKvR1tOPdPZYb1CW6L-54" target="pIfKvR1tOPdPZYb1CW6L-54" edge="1">
          <mxGeometry relative="1" as="geometry" />
        </mxCell>
        <mxCell id="pIfKvR1tOPdPZYb1CW6L-57" value="&lt;b style=&quot;border-color: rgb(0, 0, 0); font-family: Helvetica; font-size: 12px; font-style: normal; font-variant-ligatures: normal; font-variant-caps: normal; letter-spacing: normal; orphans: 2; text-align: center; text-indent: 0px; text-transform: none; widows: 2; word-spacing: 0px; -webkit-text-stroke-width: 0px; background-color: rgb(27, 29, 30); text-decoration-thickness: initial; text-decoration-style: initial; text-decoration-color: initial;&quot;&gt;1&lt;br style=&quot;border-color: rgb(0, 0, 0);&quot;&gt;&lt;/b&gt;&lt;b style=&quot;border-color: rgb(0, 0, 0); font-family: Helvetica; font-size: 12px; font-style: normal; font-variant-ligatures: normal; font-variant-caps: normal; letter-spacing: normal; orphans: 2; text-align: center; text-indent: 0px; text-transform: none; widows: 2; word-spacing: 0px; -webkit-text-stroke-width: 0px; background-color: rgb(27, 29, 30); text-decoration-thickness: initial; text-decoration-style: initial; text-decoration-color: initial;&quot;&gt;SAVE&lt;br style=&quot;border-color: rgb(0, 0, 0);&quot;&gt;.BIN&lt;/b&gt;" style="shape=note;whiteSpace=wrap;html=1;backgroundOutline=1;darkOpacity=0.05;fontColor=#FFFFFF;" parent="1" vertex="1">
          <mxGeometry x="220" y="110" width="60" height="70" as="geometry" />
        </mxCell>
      </root>
    </mxGraphModel>
  </diagram>
</mxfile>
